<svg width="24" height="24" viewBox="0 0 24 24" fill="none" xmlns="http://www.w3.org/2000/svg">
  <!-- Icon built following Fluent UI System Color Icons patterns by Microsoft Corporation -->
  <!-- https://github.com/microsoft/fluentui-system-icons/blob/main/LICENSE -->

  <!-- ① BASE: grey diagonal, light upper-right → dark lower-left (follows wrench orientation) -->
  <path fill="url(#p0)"
    d="M16.5002 2C13.4627 2 11.0002 4.46243 11.0002 7.5C11.0002 7.94322 11.0528 8.37496 11.1523 8.78899L2.84099 17.1003C1.71967 18.2216 1.71967 20.0396 2.84099 21.1609C3.96231 22.2823 5.78033 22.2823 6.90165 21.1609L15.214 12.8486C15.6272 12.9477 16.058 13 16.5002 13C19.5378 13 22.0002 10.5376 22.0002 7.5C22.0002 6.89137 21.9011 6.30437 21.7175 5.75516C21.6351 5.50875 21.4311 5.32252 21.1782 5.26294C20.9253 5.20336 20.6595 5.27892 20.4758 5.46266L18.0317 7.90697C17.7389 8.19989 17.264 8.19991 16.9711 7.907L16.0934 7.0293C15.8005 6.73642 15.8005 6.26156 16.0933 5.96867L18.5375 3.5243C18.7212 3.34057 18.7967 3.07485 18.7371 2.82197C18.6775 2.56908 18.4913 2.36505 18.2449 2.28268C17.6957 2.09912 17.1088 2 16.5002 2Z"/>

  <!-- ② SHEEN: radial highlight upper-right, metallic lit-from-above feel -->
  <path fill="url(#p1)" fill-opacity="0.4"
    d="M16.5002 2C13.4627 2 11.0002 4.46243 11.0002 7.5C11.0002 7.94322 11.0528 8.37496 11.1523 8.78899L2.84099 17.1003C1.71967 18.2216 1.71967 20.0396 2.84099 21.1609C3.96231 22.2823 5.78033 22.2823 6.90165 21.1609L15.214 12.8486C15.6272 12.9477 16.058 13 16.5002 13C19.5378 13 22.0002 10.5376 22.0002 7.5C22.0002 6.89137 21.9011 6.30437 21.7175 5.75516C21.6351 5.50875 21.4311 5.32252 21.1782 5.26294C20.9253 5.20336 20.6595 5.27892 20.4758 5.46266L18.0317 7.90697C17.7389 8.19989 17.264 8.19991 16.9711 7.907L16.0934 7.0293C15.8005 6.73642 15.8005 6.26156 16.0933 5.96867L18.5375 3.5243C18.7212 3.34057 18.7967 3.07485 18.7371 2.82197C18.6775 2.56908 18.4913 2.36505 18.2449 2.28268C17.6957 2.09912 17.1088 2 16.5002 2Z"/>

  <defs>
    <!--
      p0 · BASE GREY: diagonal follows wrench orientation (top-right head → bottom-left tip)
      apps_48 light panel top → dark panel bottom: #A8ADB3 → #555A60
    -->
    <linearGradient id="p0" x1="21" y1="2" x2="4" y2="22" gradientUnits="userSpaceOnUse">
      <stop stop-color="#A8ADB3"/>
      <stop offset="1" stop-color="#555A60"/>
    </linearGradient>

    <!--
      p1 · SHEEN: radial white highlight at wrench head (top-right)
      Centered at (19, 4) — the circular head area. Fades out toward handle tip.
      Gives metallic "lit from upper-right" feel matching Settings app icon style.
    -->
    <radialGradient id="p1" cx="0" cy="0" r="1" gradientUnits="userSpaceOnUse"
      gradientTransform="translate(19 4) rotate(135) scale(10 10)">
      <stop offset="0.1"  stop-color="#FFFFFF"/>
      <stop offset="0.7"  stop-color="#FFFFFF" stop-opacity="0"/>
    </radialGradient>

  </defs>
</svg>
