<svg width="32" height="32" viewBox="0 0 32 32" fill="none" xmlns="http://www.w3.org/2000/svg">
  <!-- Icon built following Fluent UI System Color Icons patterns by Microsoft Corporation -->
  <!-- https://github.com/microsoft/fluentui-system-icons/blob/main/LICENSE -->

  <!-- ① WALLS: white body, diagonal top-left→bottom-right -->
  <path fill="url(#p1)"
    d="M13.895 4.277a3.25 3.25 0 0 1 4.21 0l9.75 8.287A3.25 3.25 0 0 1 29 15.04V26.5a2.5 2.5 0 0 1-2.5 2.5H20v-9a2 2 0 0 0-1.991-2H13.99A2 2 0 0 0 12 20v9H5.5A2.5 2.5 0 0 1 3 26.5V15.04a3.25 3.25 0 0 1 1.145-2.476z"/>

  <!-- ② WALLS SHEEN: radial upper-right highlight for volume (briefcase paint2 technique) -->
  <path fill="url(#p2)" fill-opacity="0.35"
    d="M13.895 4.277a3.25 3.25 0 0 1 4.21 0l9.75 8.287A3.25 3.25 0 0 1 29 15.04V26.5a2.5 2.5 0 0 1-2.5 2.5H20v-9a2 2 0 0 0-1.991-2H13.99A2 2 0 0 0 12 20v9H5.5A2.5 2.5 0 0 1 3 26.5V15.04a3.25 3.25 0 0 1 1.145-2.476z"/>

  <!-- ③ ROOF CHEVRON: orange accent — single color pop -->
  <path fill="url(#p3)" fill-rule="evenodd" clip-rule="evenodd"
    d="M15.958 5.313L3.448 15.506a1.5 1.5 0 1 1-1.896-2.325L14.722 2.45a2 2 0 0 1 2.593.055l13.182 11.096a1.5 1.5 0 1 1-1.994 2.242z"/>

  <!-- ④ ROOF SHEEN: radial warm highlight at peak (alert_badge paint2_radial technique) -->
  <path fill="url(#p4)" fill-opacity="0.25" fill-rule="evenodd" clip-rule="evenodd"
    d="M15.958 5.313L3.448 15.506a1.5 1.5 0 1 1-1.896-2.325L14.722 2.45a2 2 0 0 1 2.593.055l13.182 11.096a1.5 1.5 0 1 1-1.994 2.242z"/>

  <defs>
    <!--
      p1 · WALLS: white → very light blue-grey
      arrow_square paint1 white→#B3E0FF technique: icon interior elements use
      white top fading to a tinted hue for subtle depth without going grey
    -->
    <linearGradient id="p1" x1="5.482" y1="2.256" x2="30.596" y2="23.072" gradientUnits="userSpaceOnUse">
      <stop stop-color="#FFFFFF"/>
      <stop offset="1" stop-color="#C8D8E8"/>
    </linearGradient>

    <!--
      p2 · WALLS SHEEN: radial highlight upper-right
      apps_48 light grey glow: #B9C0C7 → 0
    -->
    <radialGradient id="p2" cx="0" cy="0" r="1" gradientUnits="userSpaceOnUse"
      gradientTransform="translate(26 6) rotate(132.806) scale(14 15)">
      <stop offset="0.1"  stop-color="#FFFFFF"/>
      <stop offset="0.65" stop-color="#FFFFFF" stop-opacity="0"/>
    </radialGradient>

    <!--
      p3 · ROOF CHEVRON: orange, steep near-vertical
    -->
    <linearGradient id="p3" x1="11.152" y1="-1.378" x2="17.15" y2="15.727" gradientUnits="userSpaceOnUse">
      <stop stop-color="#FF921F"/>
      <stop offset="1" stop-color="#EB4824"/>
    </linearGradient>

    <!--
      p4 · ROOF SHEEN: radial warm highlight at chevron peak
      alert_badge paint2_radial: #FFE994 → 0
    -->
    <radialGradient id="p4" cx="0" cy="0" r="1" gradientUnits="userSpaceOnUse"
      gradientTransform="translate(16 5) rotate(132.806) scale(8 8.843)">
      <stop offset="0.253" stop-color="#FFE994"/>
      <stop offset="0.648" stop-color="#FFE994" stop-opacity="0"/>
    </radialGradient>

  </defs>
</svg>
